<svg width="84" height="84" viewBox="0 0 84 84" fill="none" xmlns="http://www.w3.org/2000/svg">
<path d="M41.6667 0C18.6667 0 0 18.6667 0 41.6667C0 64.6667 18.6667 83.3333 41.6667 83.3333C64.6667 83.3333 83.3333 64.6667 83.3333 41.6667C83.3333 18.6667 64.6667 0 41.6667 0ZM41.6667 12.5C48.5833 12.5 54.1667 18.0833 54.1667 25C54.1667 31.9167 48.5833 37.5 41.6667 37.5C34.75 37.5 29.1667 31.9167 29.1667 25C29.1667 18.0833 34.75 12.5 41.6667 12.5ZM41.6667 71.6667C31.25 71.6667 22.0417 66.3333 16.6667 58.25C16.7917 49.9583 33.3333 45.4167 41.6667 45.4167C49.9583 45.4167 66.5417 49.9583 66.6667 58.25C61.2917 66.3333 52.0833 71.6667 41.6667 71.6667Z" fill="white" fill-opacity="0.16"/>
</svg>
